<svg width="29" height="29" viewBox="0 0 29 29" fill="none" xmlns="http://www.w3.org/2000/svg">
<path d="M26.5171 21.6125C26.5171 22.0325 26.4237 22.4641 26.2254 22.8841C26.0271 23.3041 25.7704 23.7008 25.4321 24.0741C24.8604 24.7041 24.2304 25.1591 23.5187 25.4508C22.8187 25.7425 22.0604 25.8941 21.2438 25.8941C20.0538 25.8941 18.7821 25.6141 17.4404 25.0425C16.0987 24.4708 14.7571 23.7008 13.4271 22.7325C12.0854 21.7525 10.8137 20.6675 9.60042 19.4658C8.39875 18.2525 7.31375 16.9808 6.34542 15.6508C5.38875 14.3208 4.61875 12.9908 4.05875 11.6725C3.49875 10.3425 3.21875 9.07079 3.21875 7.85746C3.21875 7.06412 3.35875 6.30579 3.63875 5.60579C3.91875 4.89412 4.36208 4.24079 4.98042 3.65746C5.72708 2.92246 6.54375 2.56079 7.40708 2.56079C7.73375 2.56079 8.06042 2.63079 8.35208 2.77079C8.65542 2.91079 8.92375 3.12079 9.13375 3.42412L11.8404 7.23912C12.0504 7.53079 12.2021 7.79912 12.3071 8.05579C12.4121 8.30079 12.4704 8.54579 12.4704 8.76746C12.4704 9.04746 12.3887 9.32746 12.2254 9.59579C12.0738 9.86412 11.8521 10.1441 11.5721 10.4241L10.6854 11.3458C10.5571 11.4741 10.4987 11.6258 10.4987 11.8125C10.4987 11.9058 10.5104 11.9875 10.5338 12.0808C10.5688 12.1741 10.6038 12.2441 10.6271 12.3141C10.8371 12.6991 11.1987 13.2008 11.7121 13.8075C12.2371 14.4141 12.7971 15.0325 13.4037 15.6508C14.0337 16.2691 14.6404 16.8408 15.2587 17.3658C15.8654 17.8791 16.3671 18.2291 16.7637 18.4391C16.8221 18.4625 16.8921 18.4975 16.9737 18.5325C17.0671 18.5675 17.1604 18.5791 17.2654 18.5791C17.4637 18.5791 17.6154 18.5091 17.7437 18.3808L18.6304 17.5058C18.9221 17.2141 19.2021 16.9925 19.4704 16.8525C19.7387 16.6891 20.0071 16.6075 20.2987 16.6075C20.5204 16.6075 20.7537 16.6541 21.0104 16.7591C21.2671 16.8641 21.5354 17.0158 21.8271 17.2141L25.6887 19.9558C25.9921 20.1658 26.2021 20.4108 26.3304 20.7025C26.4471 20.9941 26.5171 21.2858 26.5171 21.6125Z" stroke="#FF0404" stroke-width="2.5" stroke-miterlimit="10"/>
</svg>
