<svg width="182" height="27" viewBox="0 0 182 27" fill="none" xmlns="http://www.w3.org/2000/svg">
<path d="M13.4586 24.7462L12.4786 19.4262H7.08859L6.14359 24.7462H0.683594L6.56359 0.491211H13.1436L19.0236 24.7462H13.4586ZM7.82359 15.4712H11.7786L9.78359 4.51621L7.82359 15.4712Z" fill="#FF0404"/>
<path d="M27.2087 0.491211V20.4062H34.8387L34.2787 24.7462H21.7137V0.491211H27.2087Z" fill="#FF0404"/>
<path d="M43.511 0.491211V24.7462H38.016V0.491211H43.511ZM55.201 0.491211L49.181 11.4112L55.726 24.7462H49.741L43.686 11.7962L49.776 0.491211H55.201Z" fill="#FF0404"/>
<path d="M63.8124 0.491211V24.7462H58.3174V0.491211H63.8124ZM75.5024 0.491211L69.4824 11.4112L76.0274 24.7462H70.0424L63.9874 11.7962L70.0774 0.491211H75.5024Z" fill="#FF0404"/>
<path d="M80.8587 19.2162C81.7221 19.2162 82.4338 19.5195 82.9938 20.1262C83.5538 20.7329 83.8337 21.4562 83.8337 22.2962C83.8337 23.1362 83.5538 23.8595 82.9938 24.4662C82.4338 25.0495 81.7221 25.3412 80.8587 25.3412C79.9721 25.3412 79.2488 25.0495 78.6888 24.4662C78.1521 23.8595 77.8838 23.1362 77.8838 22.2962C77.8838 21.4562 78.1521 20.7329 78.6888 20.1262C79.2488 19.5195 79.9721 19.2162 80.8587 19.2162Z" fill="#FF0404"/>
<path d="M98.6642 24.7462L94.7092 15.4012H94.5342H93.2042V24.7462H87.7092V0.491211H94.1842C100.204 0.491211 103.214 2.94121 103.214 7.84121C103.214 9.26454 102.911 10.5479 102.304 11.6912C101.721 12.8345 100.799 13.7212 99.5392 14.3512L104.509 24.7462H98.6642ZM94.3242 11.5862C95.4908 11.5862 96.3309 11.2945 96.8442 10.7112C97.3575 10.1045 97.6142 9.14788 97.6142 7.84121C97.6142 6.65121 97.3342 5.77621 96.7742 5.21621C96.2375 4.65621 95.3625 4.37621 94.1492 4.37621H93.2042V11.5862H94.3242Z" fill="#FF0404"/>
<path d="M122.773 17.7462C122.773 19.1929 122.469 20.4879 121.863 21.6312C121.256 22.7512 120.346 23.6495 119.133 24.3262C117.919 24.9795 116.426 25.3062 114.653 25.3062C111.993 25.3062 109.974 24.6179 108.598 23.2412C107.221 21.8645 106.533 20.0329 106.533 17.7462V0.491211H112.028V17.5012C112.028 18.7612 112.226 19.6945 112.623 20.3012C113.043 20.9079 113.719 21.2112 114.653 21.2112C115.586 21.2112 116.251 20.9079 116.648 20.3012C117.068 19.6945 117.278 18.7612 117.278 17.5012V0.491211H122.773V17.7462Z" fill="#FF0404"/>
<path d="M137.1 14.7461V9.52609L133.5 14.7461H132.75V7.74609H133.68V12.9761L137.28 7.74609H138.03V14.7461H137.1ZM142.897 9.74609H143.767V14.7461H142.897V12.6561H140.307V14.7461H139.437V9.74609H140.307V11.8261H142.897V9.74609ZM148.812 9.74609V10.5861H147.112V14.7461H146.242V10.5861H144.532V9.74609H148.812ZM149.989 12.6461C150.075 13.0928 150.279 13.4394 150.599 13.6861C150.925 13.9328 151.325 14.0561 151.799 14.0561C152.459 14.0561 152.939 13.8128 153.239 13.3261L153.979 13.7461C153.492 14.4994 152.759 14.8761 151.779 14.8761C150.985 14.8761 150.339 14.6294 149.839 14.1361C149.345 13.6361 149.099 13.0061 149.099 12.2461C149.099 11.4928 149.342 10.8661 149.829 10.3661C150.315 9.86609 150.945 9.61609 151.719 9.61609C152.452 9.61609 153.049 9.87609 153.509 10.3961C153.975 10.9094 154.209 11.5294 154.209 12.2561C154.209 12.3828 154.199 12.5128 154.179 12.6461H149.989ZM151.719 10.4361C151.252 10.4361 150.865 10.5694 150.559 10.8361C150.252 11.0961 150.062 11.4461 149.989 11.8861H153.329C153.255 11.4128 153.069 11.0528 152.769 10.8061C152.469 10.5594 152.119 10.4361 151.719 10.4361ZM157.969 9.61609C158.669 9.61609 159.265 9.87276 159.759 10.3861C160.252 10.8928 160.499 11.5128 160.499 12.2461C160.499 12.9794 160.252 13.6028 159.759 14.1161C159.265 14.6228 158.669 14.8761 157.969 14.8761C157.142 14.8761 156.512 14.5461 156.079 13.8861V16.7461H155.209V9.74609H156.079V10.6061C156.512 9.94609 157.142 9.61609 157.969 9.61609ZM157.859 14.0361C158.359 14.0361 158.779 13.8661 159.119 13.5261C159.459 13.1794 159.629 12.7528 159.629 12.2461C159.629 11.7394 159.459 11.3161 159.119 10.9761C158.779 10.6294 158.359 10.4561 157.859 10.4561C157.352 10.4561 156.929 10.6294 156.589 10.9761C156.249 11.3161 156.079 11.7394 156.079 12.2461C156.079 12.7528 156.249 13.1794 156.589 13.5261C156.929 13.8661 157.352 14.0361 157.859 14.0361ZM164.997 9.74609H165.867V14.7461H164.997V12.6561H162.407V14.7461H161.537V9.74609H162.407V11.8261H164.997V9.74609ZM167.801 12.6461C167.888 13.0928 168.091 13.4394 168.411 13.6861C168.738 13.9328 169.138 14.0561 169.611 14.0561C170.271 14.0561 170.751 13.8128 171.051 13.3261L171.791 13.7461C171.305 14.4994 170.571 14.8761 169.591 14.8761C168.798 14.8761 168.151 14.6294 167.651 14.1361C167.158 13.6361 166.911 13.0061 166.911 12.2461C166.911 11.4928 167.155 10.8661 167.641 10.3661C168.128 9.86609 168.758 9.61609 169.531 9.61609C170.265 9.61609 170.861 9.87609 171.321 10.3961C171.788 10.9094 172.021 11.5294 172.021 12.2561C172.021 12.3828 172.011 12.5128 171.991 12.6461H167.801ZM169.531 10.4361C169.065 10.4361 168.678 10.5694 168.371 10.8361C168.065 11.0961 167.875 11.4461 167.801 11.8861H171.141C171.068 11.4128 170.881 11.0528 170.581 10.8061C170.281 10.5594 169.931 10.4361 169.531 10.4361ZM176.546 9.74609V10.5861H174.846V14.7461H173.976V10.5861H172.266V9.74609H176.546ZM177.086 12.0961V11.2561H180.736V12.0961H177.086ZM136.8 19.7461H137.67V24.7461H136.8V23.8861C136.367 24.5461 135.737 24.8761 134.91 24.8761C134.21 24.8761 133.613 24.6228 133.12 24.1161C132.627 23.6028 132.38 22.9794 132.38 22.2461C132.38 21.5128 132.627 20.8928 133.12 20.3861C133.613 19.8728 134.21 19.6161 134.91 19.6161C135.737 19.6161 136.367 19.9461 136.8 20.6061V19.7461ZM135.02 24.0361C135.527 24.0361 135.95 23.8661 136.29 23.5261C136.63 23.1794 136.8 22.7528 136.8 22.2461C136.8 21.7394 136.63 21.3161 136.29 20.9761C135.95 20.6294 135.527 20.4561 135.02 20.4561C134.52 20.4561 134.1 20.6294 133.76 20.9761C133.42 21.3161 133.25 21.7394 133.25 22.2461C133.25 22.7528 133.42 23.1794 133.76 23.5261C134.1 23.8661 134.52 24.0361 135.02 24.0361ZM142.268 19.7461V20.5861H139.858V24.7461H138.988V19.7461H142.268ZM143.446 22.6461C143.532 23.0928 143.736 23.4394 144.056 23.6861C144.382 23.9328 144.782 24.0561 145.256 24.0561C145.916 24.0561 146.396 23.8128 146.696 23.3261L147.436 23.7461C146.949 24.4994 146.216 24.8761 145.236 24.8761C144.442 24.8761 143.796 24.6294 143.296 24.1361C142.802 23.6361 142.556 23.0061 142.556 22.2461C142.556 21.4928 142.799 20.8661 143.286 20.3661C143.772 19.8661 144.402 19.6161 145.176 19.6161C145.909 19.6161 146.506 19.8761 146.966 20.3961C147.432 20.9094 147.666 21.5294 147.666 22.2561C147.666 22.3828 147.656 22.5128 147.636 22.6461H143.446ZM145.176 20.4361C144.709 20.4361 144.322 20.5694 144.016 20.8361C143.709 21.0961 143.519 21.4461 143.446 21.8861H146.786C146.712 21.4128 146.526 21.0528 146.226 20.8061C145.926 20.5594 145.576 20.4361 145.176 20.4361ZM152.126 19.7461H152.996V24.7461H152.126V22.6561H149.536V24.7461H148.666V19.7461H149.536V21.8261H152.126V19.7461ZM158.04 19.7461V20.5861H156.34V24.7461H155.47V20.5861H153.76V19.7461H158.04ZM160.957 24.8761C160.204 24.8761 159.577 24.6261 159.077 24.1261C158.577 23.6194 158.327 22.9928 158.327 22.2461C158.327 21.4994 158.577 20.8761 159.077 20.3761C159.577 19.8694 160.204 19.6161 160.957 19.6161C161.451 19.6161 161.894 19.7361 162.287 19.9761C162.681 20.2094 162.974 20.5261 163.167 20.9261L162.437 21.3461C162.311 21.0794 162.114 20.8661 161.847 20.7061C161.587 20.5461 161.291 20.4661 160.957 20.4661C160.457 20.4661 160.037 20.6361 159.697 20.9761C159.364 21.3161 159.197 21.7394 159.197 22.2461C159.197 22.7461 159.364 23.1661 159.697 23.5061C160.037 23.8461 160.457 24.0161 160.957 24.0161C161.291 24.0161 161.591 23.9394 161.857 23.7861C162.124 23.6261 162.327 23.4128 162.467 23.1461L163.207 23.5761C162.994 23.9694 162.687 24.2861 162.287 24.5261C161.887 24.7594 161.444 24.8761 160.957 24.8761ZM167.708 19.7461V20.5861H166.008V24.7461H165.138V20.5861H163.428V19.7461H167.708ZM171.801 22.1761C172.314 22.3894 172.571 22.7761 172.571 23.3361C172.571 23.7494 172.431 24.0894 172.151 24.3561C171.877 24.6161 171.484 24.7461 170.971 24.7461H168.471V19.7461H170.771C171.271 19.7461 171.657 19.8728 171.931 20.1261C172.204 20.3728 172.341 20.6994 172.341 21.1061C172.341 21.5861 172.161 21.9428 171.801 22.1761ZM170.731 20.5261H169.321V21.8361H170.731C171.237 21.8361 171.491 21.6128 171.491 21.1661C171.491 20.7394 171.237 20.5261 170.731 20.5261ZM170.921 23.9561C171.174 23.9561 171.367 23.8961 171.501 23.7761C171.641 23.6561 171.711 23.4861 171.711 23.2661C171.711 23.0594 171.641 22.8994 171.501 22.7861C171.367 22.6661 171.174 22.6061 170.921 22.6061H169.321V23.9561H170.921ZM177.73 24.1161C177.216 24.6228 176.593 24.8761 175.86 24.8761C175.126 24.8761 174.503 24.6228 173.99 24.1161C173.483 23.6094 173.23 22.9861 173.23 22.2461C173.23 21.5061 173.483 20.8828 173.99 20.3761C174.503 19.8694 175.126 19.6161 175.86 19.6161C176.593 19.6161 177.216 19.8694 177.73 20.3761C178.243 20.8828 178.5 21.5061 178.5 22.2461C178.5 22.9861 178.243 23.6094 177.73 24.1161ZM175.86 24.0261C176.36 24.0261 176.78 23.8561 177.12 23.5161C177.46 23.1761 177.63 22.7528 177.63 22.2461C177.63 21.7394 177.46 21.3161 177.12 20.9761C176.78 20.6361 176.36 20.4661 175.86 20.4661C175.366 20.4661 174.95 20.6361 174.61 20.9761C174.27 21.3161 174.1 21.7394 174.1 22.2461C174.1 22.7528 174.27 23.1761 174.61 23.5161C174.95 23.8561 175.366 24.0261 175.86 24.0261Z" fill="white"/>
<mask id="mask0_4301_2" style="mask-type:alpha" maskUnits="userSpaceOnUse" x="0" y="0" width="20" height="25">
<path d="M13.4586 24.7462L12.4786 19.4262H7.08859L6.14359 24.7462H0.683594L6.56359 0.491211H13.1436L19.0236 24.7462H13.4586ZM7.82359 15.4712H11.7786L9.78359 4.51621L7.82359 15.4712Z" fill="white"/>
</mask>
<g mask="url(#mask0_4301_2)">
<path d="M-1.15625 21.3679H20.297V27.7607H-1.15625V21.3679Z" fill="white"/>
</g>
</svg>
