<svg width="13" height="13" viewBox="0 0 13 13" fill="none" xmlns="http://www.w3.org/2000/svg">
<path d="M8.43259 7.55671C8.40434 7.58571 8.29764 7.70971 8.19829 7.81171C7.61574 8.45321 6.09599 9.50321 5.30059 9.82371C5.17979 9.87521 4.87437 9.98421 4.7112 9.99121C4.55484 9.99121 4.40579 9.95521 4.26356 9.88221C4.08626 9.78021 3.94403 9.61971 3.86609 9.43021C3.81592 9.29871 3.73799 8.90521 3.73799 8.89821C3.66005 8.46771 3.61719 7.76821 3.61719 6.99521C3.61719 6.25871 3.66005 5.58771 3.72386 5.15071C3.73117 5.14371 3.8091 4.65471 3.89434 4.48721C4.0507 4.18121 4.35611 3.99121 4.68294 3.99121H4.7112C4.92406 3.99871 5.37169 4.18871 5.37169 4.19571C6.12424 4.51671 7.60889 5.51521 8.20559 6.17871C8.20559 6.17871 8.37364 6.34921 8.44669 6.45571C8.56069 6.60871 8.61719 6.79821 8.61719 6.98771C8.61719 7.19921 8.55339 7.39621 8.43259 7.55671Z" fill="white"/>
</svg>
