<svg width="141" height="140" viewBox="0 0 141 140" fill="none" xmlns="http://www.w3.org/2000/svg">
<path d="M0.8946 70.0943C0.8946 71.6654 0.946322 73.2365 1.05623 74.7946C1.17261 76.6566 1.37303 78.5057 1.64458 80.3418C2.55715 86.5243 4.30132 92.555 6.82973 98.2701C6.95901 98.5546 7.08832 98.839 7.21765 99.1235L7.4116 99.5502C7.47626 99.6924 7.54737 99.8347 7.61203 99.9705C7.70254 100.158 7.78659 100.339 7.8771 100.52C7.98701 100.746 8.09692 100.973 8.21329 101.199C8.22622 101.225 8.23916 101.257 8.25855 101.289C8.35553 101.483 8.44606 101.671 8.5495 101.865C8.56851 101.907 8.59011 101.948 8.61416 101.988C8.72407 102.207 8.84044 102.434 8.95682 102.654C9.08612 102.886 9.20896 103.126 9.33827 103.358C9.6486 103.934 9.97186 104.503 10.3016 105.072C10.3986 105.24 10.4955 105.408 10.599 105.576C10.6895 105.731 10.78 105.886 10.877 106.041C10.9417 106.145 11.0063 106.255 11.071 106.358C11.1744 106.533 11.2778 106.701 11.3878 106.875C11.627 107.257 11.8726 107.638 12.1119 108.02H12.1183C12.2282 108.194 12.3446 108.369 12.461 108.537V108.543C12.8037 109.061 13.1592 109.578 13.5148 110.089C13.5157 110.089 13.5165 110.089 13.5173 110.089C13.5181 110.089 13.5189 110.09 13.5195 110.09C13.5201 110.091 13.5205 110.092 13.5209 110.093C13.5212 110.093 13.5213 110.094 13.5213 110.095C13.8058 110.509 14.1032 110.91 14.3941 111.311V111.317C14.5881 111.569 14.7756 111.828 14.9695 112.08C15.1247 112.287 15.2863 112.5 15.448 112.707C15.4803 112.752 15.5191 112.791 15.5514 112.836V112.843C15.5967 112.901 15.6419 112.953 15.6872 113.011C16.3725 113.89 17.0794 114.75 17.8078 115.591L17.9242 115.726C17.963 115.772 18.0082 115.817 18.047 115.869C18.1117 115.94 18.1698 116.011 18.2345 116.082C18.2927 116.153 18.3573 116.224 18.422 116.295C22.2191 120.573 26.5246 124.37 31.2427 127.603C31.8698 128.036 32.5099 128.456 33.1499 128.864C33.3116 128.967 33.4732 129.071 33.6348 129.168C33.6801 129.2 33.7318 129.232 33.7771 129.265C33.8676 129.316 33.9516 129.368 34.0421 129.426C34.1262 129.478 34.2102 129.53 34.3007 129.581C34.6434 129.795 34.9925 130.002 35.3417 130.209C35.4257 130.26 35.5162 130.312 35.6067 130.364C35.6908 130.409 35.7813 130.461 35.8718 130.512C35.8718 130.519 35.8718 130.519 35.8783 130.519H35.8847V130.525H35.8912C36.3244 130.778 36.764 131.023 37.2101 131.262C37.4493 131.392 37.695 131.528 37.9407 131.65C38.4967 131.954 39.0592 132.245 39.6217 132.523C39.8221 132.62 40.029 132.717 40.2294 132.821C40.3975 132.898 40.5656 132.982 40.7337 133.06C40.7854 133.086 40.8307 133.105 40.8759 133.131C41.0182 133.196 41.154 133.26 41.2962 133.325C41.4514 133.396 41.6065 133.467 41.7552 133.538C41.9298 133.616 42.0979 133.693 42.2725 133.765C42.919 134.055 43.572 134.333 44.225 134.599C46.5651 135.558 48.9566 136.387 51.3885 137.081C51.4984 137.114 51.6148 137.146 51.7312 137.178C52.7721 137.469 53.8195 137.734 54.8733 137.973C56.7159 138.4 58.5758 138.749 60.4529 139.021H60.4658C60.6921 139.053 60.9119 139.085 61.1382 139.118C61.1576 139.118 61.177 139.124 61.2028 139.124C61.2028 139.131 61.2028 139.131 61.2093 139.124C61.455 139.157 61.7071 139.189 61.9528 139.221C61.9696 139.226 61.9871 139.228 62.0045 139.228C62.2373 139.26 62.4765 139.286 62.7093 139.312C62.9614 139.338 63.2135 139.363 63.4657 139.389C63.6597 139.409 63.8536 139.428 64.0476 139.447C64.0642 139.453 64.0818 139.455 64.0993 139.454C64.2739 139.467 64.4484 139.486 64.623 139.499H64.6489C64.7976 139.512 64.9527 139.525 65.1014 139.538C66.9052 139.68 68.7155 139.745 70.5517 139.745C72.5365 139.745 74.5084 139.667 76.4545 139.499H76.4739C76.8941 139.46 77.3079 139.422 77.7217 139.383C77.8316 139.37 77.935 139.363 78.0449 139.35C78.0643 139.35 78.0902 139.344 78.1096 139.344C78.1419 139.338 78.1742 139.338 78.213 139.331C78.2305 139.332 78.248 139.33 78.2647 139.325C78.407 139.312 78.5492 139.292 78.6979 139.279L79.1828 139.221C79.3444 139.202 79.5061 139.176 79.6677 139.157C79.7065 139.15 79.7388 139.15 79.7776 139.144C79.894 139.131 80.0104 139.111 80.1268 139.092C80.1849 139.085 80.2431 139.079 80.2948 139.073C80.4112 139.053 80.5211 139.04 80.6375 139.021H80.644C84.1917 138.51 87.6938 137.721 91.1177 136.661C91.2988 136.603 91.4798 136.551 91.6608 136.493C91.6673 136.493 91.6737 136.486 91.6802 136.486C91.7319 136.467 91.7901 136.454 91.8418 136.435C92.3267 136.28 92.8052 136.118 93.2836 135.95C93.9431 135.73 94.5961 135.491 95.2491 135.245C95.4236 135.174 95.5982 135.109 95.7727 135.038C96.1283 134.902 96.4775 134.76 96.8266 134.618C97.4214 134.379 98.0162 134.127 98.6045 133.868C99.1541 133.622 99.6972 133.377 100.24 133.118C100.253 133.112 100.273 133.112 100.286 133.099C100.408 133.04 100.531 132.982 100.648 132.924H100.654C103.631 131.495 106.503 129.855 109.246 128.017C110.126 127.429 110.992 126.821 111.845 126.194C112.531 125.683 113.203 125.166 113.876 124.636C117.193 121.997 120.263 119.063 123.05 115.869V115.862C123.25 115.642 123.438 115.416 123.632 115.19C123.664 115.157 123.69 115.125 123.716 115.099C123.839 114.951 123.955 114.808 124.078 114.666V114.66C124.239 114.472 124.401 114.278 124.556 114.084C124.595 114.039 124.627 114 124.66 113.961V113.955C124.789 113.8 124.912 113.645 125.041 113.483C125.106 113.405 125.164 113.328 125.229 113.25V113.244C125.61 112.765 125.979 112.287 126.347 111.795C126.444 111.666 126.541 111.53 126.645 111.395C127.11 110.767 127.563 110.127 128.002 109.487V109.481C128.17 109.242 128.332 108.996 128.5 108.757C128.662 108.511 128.823 108.265 128.985 108.02C129.147 107.761 129.315 107.509 129.476 107.25L129.496 107.212C129.657 106.966 129.819 106.707 129.974 106.455C130.097 106.248 130.22 106.048 130.343 105.847C130.42 105.712 130.504 105.576 130.582 105.434C130.612 105.39 130.64 105.345 130.666 105.298C130.847 104.981 131.028 104.664 131.209 104.348C131.422 103.979 131.629 103.604 131.836 103.229C131.914 103.074 131.998 102.919 132.082 102.764C132.114 102.712 132.14 102.66 132.166 102.608C132.263 102.427 132.36 102.24 132.45 102.052C132.547 101.871 132.644 101.684 132.741 101.496C132.832 101.315 132.929 101.128 133.019 100.94C133.09 100.798 133.155 100.656 133.226 100.514C133.231 100.502 133.238 100.491 133.246 100.481C133.278 100.41 133.31 100.346 133.336 100.281C133.344 100.271 133.351 100.26 133.355 100.249C133.427 100.106 133.491 99.9576 133.562 99.8153C133.653 99.6279 133.737 99.4339 133.827 99.2464C133.886 99.1171 133.95 98.9813 134.008 98.8456C134.093 98.6581 134.183 98.4706 134.261 98.2766C134.351 98.0826 134.435 97.8887 134.519 97.6883C134.543 97.6399 134.565 97.5903 134.584 97.5396C134.629 97.4491 134.661 97.3585 134.7 97.268C134.804 97.0288 134.907 96.7831 135.004 96.5439C135.12 96.2724 135.23 95.9943 135.334 95.7228C135.437 95.4707 135.534 95.2121 135.631 94.9535L135.67 94.863C137.176 90.8952 138.319 86.7988 139.084 82.6242V82.6177C139.515 80.2343 139.824 77.8304 140.008 75.4153C140.015 75.2796 140.028 75.1503 140.034 75.021C140.151 73.3853 140.202 71.7431 140.202 70.0944C140.202 69.3638 140.189 68.6397 140.17 67.9156C139.719 52.7716 134.318 38.1923 124.795 26.4085C124.589 26.1498 124.382 25.8912 124.168 25.6326C123.955 25.374 123.735 25.1219 123.522 24.8697C116.434 16.5697 107.496 10.0511 97.4268 5.8394C87.3577 1.62776 76.44 -0.159099 65.5537 0.622897C54.6674 1.40489 44.1172 4.73387 34.7535 10.3414C25.3899 15.949 17.4748 23.6782 11.6464 32.9061C11.3296 33.4104 11.0128 33.9211 10.7089 34.4319C10.3986 34.9491 10.1012 35.4664 9.80379 35.9901C3.94665 46.4012 0.877822 58.1487 0.8946 70.0943Z" fill="#F2F2F2"/>
<path d="M36.4325 131.196C37.0197 131.517 37.6138 131.825 38.2079 132.118C38.4195 132.221 38.638 132.323 38.8497 132.432C39.0273 132.514 39.2048 132.603 39.3823 132.685C39.437 132.712 39.4848 132.733 39.5326 132.76C39.6828 132.828 39.8262 132.897 39.9764 132.965C40.1403 133.04 40.3042 133.115 40.4612 133.19C40.6456 133.272 40.8231 133.354 41.0075 133.429C41.6903 133.736 42.38 134.03 43.0696 134.31C45.5412 135.323 48.067 136.199 50.6354 136.932C50.7515 136.966 50.8744 137 50.9973 137.035C52.0967 137.342 53.2029 137.622 54.3159 137.874C56.262 138.325 58.2263 138.694 60.2087 138.981H60.2224C60.4614 139.015 60.6935 139.049 60.9325 139.083C60.953 139.083 60.9735 139.09 61.0008 139.09C61.0008 139.097 61.0008 139.097 61.0076 139.09C61.2671 139.124 61.5334 139.158 61.7929 139.192C61.8106 139.198 61.8291 139.2 61.8475 139.199C62.0934 139.233 62.346 139.261 62.5918 139.288C62.8581 139.315 63.1244 139.343 63.3907 139.37C63.5956 139.39 63.8004 139.411 64.0053 139.431C64.0228 139.437 64.0414 139.44 64.0599 139.438C64.2443 139.452 64.4286 139.472 64.613 139.486H64.6403C64.7974 139.5 64.9612 139.513 65.1183 139.527C67.0234 139.677 68.9353 139.745 70.8746 139.745C72.9709 139.745 75.0535 139.663 77.1088 139.486H77.1293C77.5731 139.445 78.0102 139.404 78.4472 139.363C78.5632 139.349 78.6725 139.342 78.7886 139.329C78.8091 139.329 78.8364 139.322 78.8569 139.322C78.891 139.315 78.9252 139.315 78.9661 139.308C78.9846 139.309 79.003 139.307 79.0207 139.302C79.171 139.288 79.3212 139.267 79.4782 139.254L79.9904 139.192C80.1611 139.172 80.3318 139.144 80.5025 139.124C80.5435 139.117 80.5776 139.117 80.6186 139.11C80.7415 139.097 80.8644 139.076 80.9873 139.056C81.0488 139.049 81.1102 139.042 81.1648 139.035C81.2878 139.015 81.4038 139.001 81.5267 138.981H81.5336C85.2805 138.441 88.9792 137.608 92.5954 136.488C92.7866 136.427 92.9778 136.372 93.169 136.311C92.2874 132.199 90.4723 128.345 87.8639 125.046C85.2556 121.748 81.9239 119.093 78.1262 117.287C79.0656 116.392 79.7149 115.236 79.9904 113.968C80.1677 113.151 80.1817 112.307 80.0317 111.485C79.8817 110.662 79.5706 109.877 79.1163 109.175C78.2303 107.814 76.8401 106.861 75.2515 106.526L65.132 104.409C63.5029 104.091 61.8144 104.43 60.4334 105.35C59.0525 106.271 58.0908 107.699 57.7574 109.325C57.6541 109.824 57.6083 110.332 57.6208 110.841C47.8768 117.328 40.8641 124.054 36.4325 131.196Z" fill="#6C63FF"/>
<path d="M66.312 100.411C77.9557 100.411 87.3948 90.9721 87.3948 79.3284C87.3948 67.6847 77.9557 58.2456 66.312 58.2456C54.6683 58.2456 45.2292 67.6847 45.2292 79.3284C45.2292 90.9721 54.6683 100.411 66.312 100.411Z" fill="#FFB8B8"/>
<path d="M53.1701 97.5054C50.9219 95.9696 48.626 93.0185 47.0933 90.8067C45.0623 87.8994 43.6648 84.5977 42.9914 81.1157C42.318 77.6337 42.3837 74.0491 43.1843 70.5941C43.4396 69.2127 44.0671 67.9272 44.9991 66.876C45.9921 65.8934 47.6139 65.4275 48.8258 66.1224C48.4951 65.2367 48.3494 64.2926 48.3977 63.3484C48.4461 62.4043 48.6874 61.48 49.1068 60.6327C49.9586 58.9409 51.1929 57.4709 52.7117 56.3391C55.6165 54.1023 59.0726 52.6937 62.7133 52.2626C66.354 51.8316 70.0435 52.3943 73.3902 53.8909C74.7072 54.5012 72.5441 49.7882 73.9226 50.2427C75.2919 50.7729 76.8143 50.7462 78.1641 50.1682C79.4605 49.5156 83.7577 53.3929 83.2605 52.0293C84.2443 52.476 85.0991 53.1644 85.7453 54.0304C86.3914 54.8965 86.8079 55.9119 86.9559 56.9822C87.1039 58.0526 86.9787 59.1429 86.5918 60.1518C86.205 61.1607 85.5691 62.0552 84.7434 62.7522C83.6553 63.6706 82.2968 64.1995 81.1054 64.9793C79.018 66.4479 77.5406 68.6298 76.9519 71.1132C76.3633 73.5965 76.7043 76.2095 77.9105 78.4587C76.657 77.6533 75.2817 77.0557 73.8376 76.6888C73.1132 76.512 72.3569 76.5107 71.6319 76.6851C70.9069 76.8595 70.2339 77.2045 69.6691 77.6914C69.1972 78.2315 68.8406 78.8624 68.6214 79.5453C68.4021 80.2282 68.3248 80.9488 68.3942 81.6627C68.4414 83.0934 68.7818 84.5029 68.82 85.9339C68.9321 90.1327 71.1808 98.1156 67.9253 100.347C65.3562 102.109 56.2398 99.6022 53.1701 97.5054Z" fill="#2F2E41"/>
</svg>
